# xmcd
#
# Track frame offsets:
#	150
#	12764
#	25861
#	42016
#	54840
#	68856
#	81540
#	92367
#	103607
#	118473
#	127497
#	137173
#	154065
#	168176
#	182475
#	191765
#	198457
#	212583
#	222579
#	238054
#
# Disc length: 3309 seconds
#
# Revision: 0
# Processed by: cddbd v1.5.1PL0 Copyright (c) Steve Scherf et al.
# Submitted via: dBpowerAMP V4.0
#
DISCID=210ceb14
DTITLE=Various Artist - 40 vinsæl lög frá 6 og 7 áratug diskur 2
DYEAR=1900
DGENRE=Country
TTITLE0=01 40 vinsæl Soffía Karlsdóttir - Það er draumur að vera með dáta
TTITLE1=02 40 vinsæl Alfreð Clausen - Ömmubæn
TTITLE2=03 40 vinsæl Erla og Haukur - Þrek og tár
TTITLE3=05 40 vinsæl Skafti Ólafsson - Allt á floti
TTITLE4=05 40 vinsæl Ragnar Bjarnason - Vorkvöld í Reykjavík
TTITLE5=06 40 vinsæl Helena Eyjólfsdóttir - Gefðu að hann nái til lands
TTITLE6=07 40 vinsæl Ómar Ragnarsson - Svona er á sild
TTITLE7=08 40 vinsæl Sigfús Halldórsson - Litla flugan
TTITLE8=09 40 vinsæl Elly Vilhjálms - Kveðju sendir blærinn
TTITLE9=10 40 vinsæl Haukur Mortens - Síldarstúlkan
TTITLE10=11 40 vinsæl Erling Ágústsson - Oft er fjör í Eyjum
TTITLE11=12 40 vinsæl Óðinn Valdimarsson - Saga farmannsins
TTITLE12=13 40 vinsæl Ingibjörg Smith - Við gengum tvö
TTITLE13=14 40 vinsæl Svavar Lárusson - Sestu hérna hjá mér
TTITLE14=15 40 vinsæl Póló og Erla Stefánsdóttir - Lóan er komin
TTITLE15=16 40 vinsæl Stefán Jónsson - Laus og liðugur
TTITLE16=17 40 vinsæl Blandaður kvartett og Vísir - Kveiktu ljós
TTITLE17=18 40 vinsæl Steindór Hjörleifsson - Einu sinnu á ágústkvöldi
TTITLE18=19 40 vinsæl Sigurður Ólafsson - Litli vin
TTITLE19=20 40 vinsæl Þorvaldur Halldórsson - Violetta
EXTD=
EXTT0=
EXTT1=
EXTT2=
EXTT3=
EXTT4=
EXTT5=
EXTT6=
EXTT7=
EXTT8=
EXTT9=
EXTT10=
EXTT11=
EXTT12=
EXTT13=
EXTT14=
EXTT15=
EXTT16=
EXTT17=
EXTT18=
EXTT19=
PLAYORDER=
